<svg width="40" height="40" viewBox="0 0 40 40" fill="none" xmlns="http://www.w3.org/2000/svg">
<path fill-rule="evenodd" clip-rule="evenodd" d="M4.80009 30.09C7.09373 19.9413 11.9944 10.5661 19.0184 2.89005C19.2709 2.61533 19.627 2.45899 20.0001 2.45898C20.3732 2.45898 20.7293 2.61533 20.9818 2.89004C21.2584 3.19004 21.4884 3.44337 21.6701 3.64837C28.331 11.1848 32.9844 20.279 35.2001 30.09C31.6318 30.8417 27.9668 31.335 24.2268 31.5467L20.7451 38.51C20.6038 38.792 20.3154 38.97 20.0001 38.97C19.6847 38.97 19.3964 38.792 19.2551 38.51L15.7734 31.5467C12.0842 31.3382 8.41594 30.8512 4.80005 30.09L4.80009 30.09ZM15.9635 28.2184L17.8918 28.3284L20.0001 32.545L22.1085 28.3284L24.0368 28.2184C26.3964 28.0848 28.7477 27.8323 31.0818 27.4617C28.8705 19.8815 25.0955 12.8488 20.0001 6.81671C14.9047 12.8488 11.1297 19.8815 8.91846 27.4617C11.2435 27.8317 13.5935 28.085 15.9635 28.2184ZM20 25C18.2137 25 16.563 24.047 15.6699 22.5C14.7767 20.953 14.7767 19.047 15.6699 17.5C16.563 15.953 18.2137 15 20 15C21.7863 15 23.437 15.953 24.3301 17.5C25.2233 19.047 25.2233 20.953 24.3301 22.5C23.437 24.047 21.7863 25 20 25ZM20.0002 21.6667C20.9206 21.6667 21.6668 20.9205 21.6668 20C21.6668 19.0796 20.9206 18.3334 20.0002 18.3334C19.0797 18.3334 18.3335 19.0796 18.3335 20C18.3335 20.9205 19.0797 21.6667 20.0001 21.6667H20.0002Z" fill="#8E6C53"/>
</svg>
