<svg width="40" height="40" viewBox="0 0 40 40" fill="none" xmlns="http://www.w3.org/2000/svg">
<path fill-rule="evenodd" clip-rule="evenodd" d="M5.27039 7.44839C9.28101 3.43705 15.7069 3.19863 20.0037 6.90173C24.2964 3.20513 30.7122 3.43993 34.7232 7.44041C38.7341 11.4409 38.9857 17.8561 35.3004 22.1584L22.3587 35.1417C21.1254 36.3755 19.1494 36.4496 17.8271 35.3117L17.6437 35.1434L4.70372 22.1584C1.02053 17.86 1.26743 11.4507 5.27039 7.44839L5.27039 7.44839ZM7.62712 9.80507C4.79606 12.6369 4.68893 17.1933 7.38379 20.1551L7.62712 20.4117L20.0021 32.7867L28.8405 23.9467L22.9488 18.0551L21.1821 19.8217C19.9192 21.0853 18.0781 21.5791 16.3524 21.1171C14.6267 20.6551 13.2785 19.3076 12.8157 17.5821C12.3529 15.8566 12.8459 14.0153 14.1088 12.7517L17.6121 9.24674C14.7321 6.94821 10.6091 7.08171 7.88379 9.56174L7.62713 9.80507L7.62712 9.80507ZM21.7704 14.5184C22.4212 13.8678 23.4762 13.8678 24.1271 14.5184L31.1971 21.5884L32.3771 20.4117C35.2592 17.5316 35.3148 12.8773 32.5021 9.92931C29.6895 6.98129 25.0377 6.81808 22.0254 9.56174L21.7704 9.80507L16.4671 15.1084C15.8691 15.706 15.8132 16.6566 16.3371 17.3201L16.4671 17.4651C17.0646 18.063 18.0152 18.1189 18.6787 17.5951L18.8237 17.4651L21.7704 14.5184Z" fill="#8E6C53"/>
</svg>
